<svg width="237" height="33" viewBox="0 0 237 33" fill="none" xmlns="http://www.w3.org/2000/svg">
<path d="M22.1998 32.0802L-0.000156242 3.20019H12.4398L22.6798 17.2402H22.9198L33.2398 3.20019H45.5998L23.4398 32.0802H22.1998ZM66.9773 31.7602C55.4173 31.7602 48.0173 28.4402 48.0173 23.3202C48.0173 19.8802 50.5773 17.4402 56.5373 16.4402V16.0402C52.1373 15.4002 49.7373 12.8402 49.7373 10.0402C49.7373 5.88019 55.1373 2.64019 66.9773 2.64019C78.8173 2.64019 84.1773 5.88019 84.1773 10.0402C84.1773 12.8402 81.7773 15.4002 77.3773 16.0402V16.4402C83.3373 17.4402 85.8973 19.8802 85.8973 23.3202C85.8973 28.4402 78.5373 31.7602 66.9773 31.7602ZM66.9773 14.6402C70.5773 14.6402 72.6973 13.6002 72.6973 11.9602C72.6973 10.3602 70.5773 9.28019 66.9773 9.28019C63.3373 9.28019 61.2173 10.3602 61.2173 11.9602C61.2173 13.6002 63.3373 14.6402 66.9773 14.6402ZM66.9773 24.7602C71.2573 24.7602 73.7773 23.5202 73.7773 21.6802C73.7773 19.8402 71.2573 18.5202 66.9773 18.5202C62.6973 18.5202 60.0973 19.8402 60.0973 21.6802C60.0973 23.5202 62.6973 24.7602 66.9773 24.7602ZM104.584 31.2002V3.20019H109.104V27.7602H134.944V31.2002H104.584ZM153.671 31.6802C145.111 31.6802 138.711 27.1202 138.711 20.5202C138.711 14.0402 145.311 9.3602 154.071 9.3602C160.031 9.3602 165.231 11.4802 167.871 14.9602H168.151L170.471 9.84019H171.471V31.2002H167.191V25.9202H166.831C164.551 29.4002 159.591 31.6802 153.671 31.6802ZM155.351 28.6002C162.031 28.6002 167.351 25.2802 167.351 20.4802C167.351 15.6402 162.031 12.3602 155.351 12.3602C148.631 12.3602 143.031 15.5602 143.031 20.4802C143.031 25.4002 148.591 28.6002 155.351 28.6002ZM194.895 31.7202C189.175 31.7202 184.215 29.5602 181.655 26.1602H181.255V31.2002H176.975V0.000194073H181.255V14.8802H181.655C184.255 11.4802 189.175 9.3602 194.895 9.3602C203.415 9.3602 210.135 14.0002 210.135 20.5202C210.135 27.0002 203.415 31.7202 194.895 31.7202ZM193.415 28.7202C200.215 28.7202 205.815 25.4002 205.815 20.5202C205.815 15.6002 200.215 12.3202 193.415 12.3202C186.615 12.3202 181.335 15.6802 181.335 20.5202C181.335 25.3202 186.655 28.7202 193.415 28.7202ZM225.684 31.7202C220.404 31.7202 215.884 30.5602 212.484 28.8402L213.364 26.2002C216.164 27.7602 220.644 29.0402 224.884 29.0402C229.364 29.0402 232.324 27.5602 232.324 25.5202C232.324 23.4002 230.244 22.3602 224.284 21.5202C217.124 20.4802 214.044 18.4402 214.044 15.1602C214.044 11.8402 218.364 9.3602 225.324 9.3602C229.284 9.3602 232.324 9.9202 235.004 10.6802V13.4802C232.644 12.7202 229.564 12.0402 226.044 12.0402C221.644 12.0402 218.444 13.2802 218.444 15.3202C218.444 17.2402 220.164 18.3602 226.364 19.2402C233.884 20.3202 236.764 22.2802 236.764 25.6802C236.764 29.0802 232.604 31.7202 225.684 31.7202Z" fill="white"/>
</svg>
